<svg width="114" height="112" viewBox="0 0 114 112" fill="none" xmlns="http://www.w3.org/2000/svg">
<g clip-path="url(#clip0_1001_2)">
<mask id="path-1-outside-1_1001_2" maskUnits="userSpaceOnUse" x="43" y="30" width="54" height="38" fill="black">
<rect fill="white" x="43" y="30" width="54" height="38"/>
<path d="M44.875 67V32.0625H54.0625V38.2812H54.5C55.2292 36.2188 56.4479 34.5938 58.1562 33.4062C59.8646 32.2188 61.8958 31.625 64.25 31.625C66.6458 31.625 68.6771 32.2292 70.3438 33.4375C72.0312 34.625 73.1458 36.2396 73.6875 38.2812H74.0625C74.7917 36.2604 76.0833 34.6458 77.9375 33.4375C79.8125 32.2292 82.0312 31.625 84.5938 31.625C87.8438 31.625 90.4896 32.6562 92.5312 34.7188C94.5938 36.7812 95.625 39.7083 95.625 43.5V67H85.9375V45.4375C85.9375 43.4792 85.4167 42.0208 84.375 41.0625C83.3542 40.1042 82.0729 39.625 80.5312 39.625C78.7812 39.625 77.4062 40.1875 76.4062 41.3125C75.4271 42.4167 74.9375 43.875 74.9375 45.6875V67H65.5312V45.1875C65.5312 43.5 65.0417 42.1562 64.0625 41.1562C63.1042 40.1354 61.8333 39.625 60.25 39.625C58.625 39.625 57.2708 40.2188 56.1875 41.4062C55.1042 42.5729 54.5625 44.125 54.5625 46.0625V67H44.875Z"/>
</mask>
<path d="M44.875 67V32.0625H54.0625V38.2812H54.5C55.2292 36.2188 56.4479 34.5938 58.1562 33.4062C59.8646 32.2188 61.8958 31.625 64.25 31.625C66.6458 31.625 68.6771 32.2292 70.3438 33.4375C72.0312 34.625 73.1458 36.2396 73.6875 38.2812H74.0625C74.7917 36.2604 76.0833 34.6458 77.9375 33.4375C79.8125 32.2292 82.0312 31.625 84.5938 31.625C87.8438 31.625 90.4896 32.6562 92.5312 34.7188C94.5938 36.7812 95.625 39.7083 95.625 43.5V67H85.9375V45.4375C85.9375 43.4792 85.4167 42.0208 84.375 41.0625C83.3542 40.1042 82.0729 39.625 80.5312 39.625C78.7812 39.625 77.4062 40.1875 76.4062 41.3125C75.4271 42.4167 74.9375 43.875 74.9375 45.6875V67H65.5312V45.1875C65.5312 43.5 65.0417 42.1562 64.0625 41.1562C63.1042 40.1354 61.8333 39.625 60.25 39.625C58.625 39.625 57.2708 40.2188 56.1875 41.4062C55.1042 42.5729 54.5625 44.125 54.5625 46.0625V67H44.875Z" fill="black"/>
<path d="M44.875 67H43.875V68H44.875V67ZM44.875 32.0625V31.0625H43.875V32.0625H44.875ZM54.0625 32.0625H55.0625V31.0625H54.0625V32.0625ZM54.0625 38.2812H53.0625V39.2812H54.0625V38.2812ZM54.5 38.2812V39.2812H55.2071L55.4428 38.6146L54.5 38.2812ZM70.3438 33.4375L69.7567 34.2472L69.7683 34.2553L70.3438 33.4375ZM73.6875 38.2812L72.7209 38.5377L72.9182 39.2812H73.6875V38.2812ZM74.0625 38.2812V39.2812H74.7648L75.0031 38.6207L74.0625 38.2812ZM77.9375 33.4375L77.3958 32.5969L77.3915 32.5997L77.9375 33.4375ZM92.5312 34.7188L91.8206 35.4223L91.8241 35.4259L92.5312 34.7188ZM95.625 67V68H96.625V67H95.625ZM85.9375 67H84.9375V68H85.9375V67ZM84.375 41.0625L83.6905 41.7916L83.6979 41.7984L84.375 41.0625ZM76.4062 41.3125L75.6588 40.6481L75.6581 40.649L76.4062 41.3125ZM74.9375 67V68H75.9375V67H74.9375ZM65.5312 67H64.5312V68H65.5312V67ZM64.0625 41.1562L63.3334 41.8407L63.3406 41.8484L63.348 41.8559L64.0625 41.1562ZM56.1875 41.4062L56.9203 42.0867L56.9263 42.0802L56.1875 41.4062ZM54.5625 67V68H55.5625V67H54.5625ZM44.875 67H45.875V32.0625H44.875H43.875V67H44.875ZM44.875 32.0625V33.0625H54.0625V32.0625V31.0625H44.875V32.0625ZM54.0625 32.0625H53.0625V38.2812H54.0625H55.0625V32.0625H54.0625ZM54.0625 38.2812V39.2812H54.5V38.2812V37.2812H54.0625V38.2812ZM54.5 38.2812L55.4428 38.6146C56.106 36.7388 57.1999 35.2889 58.727 34.2274L58.1562 33.4062L57.5855 32.5851C55.6959 33.8986 54.3524 35.6987 53.5572 37.9479L54.5 38.2812ZM58.1562 33.4062L58.727 34.2274C60.2463 33.1713 62.072 32.625 64.25 32.625V31.625V30.625C61.7196 30.625 59.4829 31.2662 57.5855 32.5851L58.1562 33.4062ZM64.25 31.625V32.625C66.4707 32.625 68.2876 33.182 69.7568 34.2471L70.3438 33.4375L70.9307 32.6279C69.0666 31.2764 66.821 30.625 64.25 30.625V31.625ZM70.3438 33.4375L69.7683 34.2553C71.2585 35.304 72.238 36.7174 72.7209 38.5377L73.6875 38.2812L74.6541 38.0248C74.0537 35.7617 72.804 33.946 70.9192 32.6197L70.3438 33.4375ZM73.6875 38.2812V39.2812H74.0625V38.2812V37.2812H73.6875V38.2812ZM74.0625 38.2812L75.0031 38.6207C75.6561 36.811 76.8057 35.3687 78.4835 34.2753L77.9375 33.4375L77.3915 32.5997C75.361 33.923 73.9272 35.7098 73.1219 37.9418L74.0625 38.2812ZM77.9375 33.4375L78.4792 34.2781C80.1697 33.1886 82.1941 32.625 84.5938 32.625V31.625V30.625C81.8684 30.625 79.4553 31.2697 77.3958 32.5969L77.9375 33.4375ZM84.5938 31.625V32.625C87.6118 32.625 89.99 33.573 91.8206 35.4223L92.5312 34.7188L93.2419 34.0152C90.9892 31.7395 88.0757 30.625 84.5938 30.625V31.625ZM92.5312 34.7188L91.8241 35.4259C93.6476 37.2494 94.625 39.8906 94.625 43.5H95.625H96.625C96.625 39.526 95.5399 36.3131 93.2384 34.0116L92.5312 34.7188ZM95.625 43.5H94.625V67H95.625H96.625V43.5H95.625ZM95.625 67V66H85.9375V67V68H95.625V67ZM85.9375 67H86.9375V45.4375H85.9375H84.9375V67H85.9375ZM85.9375 45.4375H86.9375C86.9375 43.3103 86.369 41.5381 85.0521 40.3266L84.375 41.0625L83.6979 41.7984C84.4644 42.5035 84.9375 43.648 84.9375 45.4375H85.9375ZM84.375 41.0625L85.0594 40.3334C83.8338 39.1828 82.2993 38.625 80.5312 38.625V39.625V40.625C81.8466 40.625 82.8745 41.0255 83.6906 41.7916L84.375 41.0625ZM80.5312 39.625V38.625C78.5468 38.625 76.8801 39.2742 75.6588 40.6481L76.4062 41.3125L77.1537 41.9769C77.9324 41.1008 79.0157 40.625 80.5312 40.625V39.625ZM76.4062 41.3125L75.6581 40.649C74.4818 41.9754 73.9375 43.6887 73.9375 45.6875H74.9375H75.9375C75.9375 44.0613 76.3724 42.8579 77.1544 41.976L76.4062 41.3125ZM74.9375 45.6875H73.9375V67H74.9375H75.9375V45.6875H74.9375ZM74.9375 67V66H65.5312V67V68H74.9375V67ZM65.5312 67H66.5312V45.1875H65.5312H64.5312V67H65.5312ZM65.5312 45.1875H66.5312C66.5312 43.2958 65.9757 41.6808 64.777 40.4566L64.0625 41.1562L63.348 41.8559C64.1076 42.6317 64.5312 43.7042 64.5312 45.1875H65.5312ZM64.0625 41.1562L64.7916 40.4718C63.6186 39.2224 62.0697 38.625 60.25 38.625V39.625V40.625C61.5969 40.625 62.5897 41.0485 63.3334 41.8407L64.0625 41.1562ZM60.25 39.625V38.625C58.3474 38.625 56.7239 39.3345 55.4487 40.7323L56.1875 41.4062L56.9263 42.0802C57.8178 41.103 58.9026 40.625 60.25 40.625V39.625ZM56.1875 41.4062L55.4547 40.7258C54.164 42.1158 53.5625 43.9303 53.5625 46.0625H54.5625H55.5625C55.5625 44.3197 56.0443 43.0301 56.9203 42.0867L56.1875 41.4062ZM54.5625 46.0625H53.5625V67H54.5625H55.5625V46.0625H54.5625ZM54.5625 67V66H44.875V67V68H54.5625V67Z" fill="url(#paint0_linear_1001_2)" mask="url(#path-1-outside-1_1001_2)"/>
<mask id="path-3-outside-2_1001_2" maskUnits="userSpaceOnUse" x="19" y="28" width="37" height="52" fill="black">
<rect fill="white" x="19" y="28" width="37" height="52"/>
<path d="M37.5312 78.8125C32.8229 78.8125 29.125 77.875 26.4375 76C23.7708 74.1458 22.1562 71.8333 21.5938 69.0625L30.5312 67.875C30.9271 68.9375 31.6875 69.8646 32.8125 70.6562C33.9583 71.4479 35.6042 71.8438 37.75 71.8438C39.8542 71.8438 41.5938 71.3333 42.9688 70.3125C44.3438 69.3125 45.0312 67.6146 45.0312 65.2188V58.8125H44.5938C43.9688 60.2708 42.8438 61.5833 41.2188 62.75C39.6146 63.9167 37.4167 64.5 34.625 64.5C32.0208 64.5 29.6458 63.8958 27.5 62.6875C25.3542 61.4583 23.6458 59.5833 22.375 57.0625C21.1042 54.5417 20.4688 51.3542 20.4688 47.5C20.4688 43.5208 21.1146 40.2083 22.4062 37.5625C23.7188 34.9167 25.4479 32.9375 27.5938 31.625C29.7396 30.2917 32.0938 29.625 34.6562 29.625C36.5938 29.625 38.2292 29.9583 39.5625 30.625C40.8958 31.2708 41.9688 32.0833 42.7812 33.0625C43.6146 34.0417 44.25 35.0104 44.6875 35.9688H45.0625V30.0625H54.5625V65.375C54.5625 68.3333 53.8333 70.8125 52.375 72.8125C50.9167 74.8125 48.9062 76.3125 46.3438 77.3125C43.8021 78.3125 40.8646 78.8125 37.5312 78.8125ZM30.375 47.4375C30.375 50.4375 31 52.8229 32.25 54.5938C33.5208 56.3438 35.3438 57.2188 37.7188 57.2188C40.0521 57.2188 41.8542 56.3542 43.125 54.625C44.4167 52.8958 45.0625 50.5 45.0625 47.4375C45.0625 44.375 44.4271 41.9271 43.1562 40.0938C41.8854 38.2396 40.0729 37.3125 37.7188 37.3125C35.3229 37.3125 33.5 38.2604 32.25 40.1562C31 42.0312 30.375 44.4583 30.375 47.4375Z"/>
</mask>
<path d="M37.5312 78.8125C32.8229 78.8125 29.125 77.875 26.4375 76C23.7708 74.1458 22.1562 71.8333 21.5938 69.0625L30.5312 67.875C30.9271 68.9375 31.6875 69.8646 32.8125 70.6562C33.9583 71.4479 35.6042 71.8438 37.75 71.8438C39.8542 71.8438 41.5938 71.3333 42.9688 70.3125C44.3438 69.3125 45.0312 67.6146 45.0312 65.2188V58.8125H44.5938C43.9688 60.2708 42.8438 61.5833 41.2188 62.75C39.6146 63.9167 37.4167 64.5 34.625 64.5C32.0208 64.5 29.6458 63.8958 27.5 62.6875C25.3542 61.4583 23.6458 59.5833 22.375 57.0625C21.1042 54.5417 20.4688 51.3542 20.4688 47.5C20.4688 43.5208 21.1146 40.2083 22.4062 37.5625C23.7188 34.9167 25.4479 32.9375 27.5938 31.625C29.7396 30.2917 32.0938 29.625 34.6562 29.625C36.5938 29.625 38.2292 29.9583 39.5625 30.625C40.8958 31.2708 41.9688 32.0833 42.7812 33.0625C43.6146 34.0417 44.25 35.0104 44.6875 35.9688H45.0625V30.0625H54.5625V65.375C54.5625 68.3333 53.8333 70.8125 52.375 72.8125C50.9167 74.8125 48.9062 76.3125 46.3438 77.3125C43.8021 78.3125 40.8646 78.8125 37.5312 78.8125ZM30.375 47.4375C30.375 50.4375 31 52.8229 32.25 54.5938C33.5208 56.3438 35.3438 57.2188 37.7188 57.2188C40.0521 57.2188 41.8542 56.3542 43.125 54.625C44.4167 52.8958 45.0625 50.5 45.0625 47.4375C45.0625 44.375 44.4271 41.9271 43.1562 40.0938C41.8854 38.2396 40.0729 37.3125 37.7188 37.3125C35.3229 37.3125 33.5 38.2604 32.25 40.1562C31 42.0312 30.375 44.4583 30.375 47.4375Z" fill="black"/>
<path d="M26.4375 76L27.0097 75.1799L27.0084 75.179L26.4375 76ZM21.5938 69.0625L21.462 68.0712L20.4007 68.2122L20.6137 69.2615L21.5938 69.0625ZM30.5312 67.875L31.4683 67.5259L31.19 66.7787L30.3995 66.8837L30.5312 67.875ZM32.8125 70.6562L32.237 71.4741L32.2441 71.479L32.8125 70.6562ZM42.9688 70.3125L42.3806 69.5037L42.3727 69.5096L42.9688 70.3125ZM45.0312 58.8125H46.0312V57.8125H45.0312V58.8125ZM44.5938 58.8125V57.8125H43.9344L43.6746 58.4186L44.5938 58.8125ZM41.2188 62.75L40.6355 61.9377L40.6306 61.9413L41.2188 62.75ZM27.5 62.6875L27.0029 63.5552L27.0093 63.5589L27.5 62.6875ZM22.375 57.0625L23.2679 56.6123L22.375 57.0625ZM22.4062 37.5625L21.5104 37.1181L21.5076 37.1238L22.4062 37.5625ZM27.5938 31.625L28.1155 32.4781L28.1215 32.4744L27.5938 31.625ZM39.5625 30.625L39.1153 31.5195L39.1266 31.525L39.5625 30.625ZM42.7812 33.0625L42.0116 33.7011L42.0197 33.7106L42.7812 33.0625ZM44.6875 35.9688L43.7778 36.384L44.0447 36.9688H44.6875V35.9688ZM45.0625 35.9688V36.9688H46.0625V35.9688H45.0625ZM45.0625 30.0625V29.0625H44.0625V30.0625H45.0625ZM54.5625 30.0625H55.5625V29.0625H54.5625V30.0625ZM46.3438 77.3125L45.9802 76.3809L45.9776 76.3819L46.3438 77.3125ZM32.25 54.5938L31.433 55.1705L31.4408 55.1814L32.25 54.5938ZM43.125 54.625L42.3238 54.0265L42.3192 54.0328L43.125 54.625ZM43.1562 40.0938L42.3314 40.6591L42.3344 40.6634L43.1562 40.0938ZM32.25 40.1562L33.0821 40.711L33.0849 40.7067L32.25 40.1562ZM37.5312 78.8125V77.8125C32.9419 77.8125 29.4706 76.8968 27.0097 75.1799L26.4375 76L25.8653 76.8201C28.7794 78.8532 32.704 79.8125 37.5312 79.8125V78.8125ZM26.4375 76L27.0084 75.179C24.5192 73.4482 23.0774 71.3444 22.5738 68.8635L21.5938 69.0625L20.6137 69.2615C21.2351 72.3223 23.0225 74.8435 25.8666 76.821L26.4375 76ZM21.5938 69.0625L21.7255 70.0538L30.663 68.8663L30.5312 67.875L30.3995 66.8837L21.462 68.0712L21.5938 69.0625ZM30.5312 67.875L29.5942 68.2241C30.0743 69.5129 30.9826 70.5914 32.237 71.4741L32.8125 70.6562L33.388 69.8384C32.3924 69.1378 31.7799 68.3621 31.4683 67.5259L30.5312 67.875ZM32.8125 70.6562L32.2441 71.479C33.625 72.4331 35.5034 72.8438 37.75 72.8438V71.8438V70.8438C35.7049 70.8438 34.2917 70.4628 33.3809 69.8335L32.8125 70.6562ZM37.75 71.8438V72.8438C40.0188 72.8438 41.9812 72.2912 43.5648 71.1154L42.9688 70.3125L42.3727 69.5096C41.2063 70.3755 39.6895 70.8438 37.75 70.8438V71.8438ZM42.9688 70.3125L43.5569 71.1212C45.2861 69.8637 46.0312 67.7947 46.0312 65.2188H45.0312H44.0312C44.0312 67.4345 43.4014 68.7613 42.3806 69.5038L42.9688 70.3125ZM45.0312 65.2188H46.0312V58.8125H45.0312H44.0312V65.2188H45.0312ZM45.0312 58.8125V57.8125H44.5938V58.8125V59.8125H45.0312V58.8125ZM44.5938 58.8125L43.6746 58.4186C43.1379 59.671 42.1507 60.8499 40.6355 61.9377L41.2188 62.75L41.802 63.5623C43.5368 62.3168 44.7996 60.8707 45.5129 59.2064L44.5938 58.8125ZM41.2188 62.75L40.6306 61.9413C39.2544 62.9421 37.2889 63.5 34.625 63.5V64.5V65.5C37.5445 65.5 39.9748 64.8912 41.8069 63.5587L41.2188 62.75ZM34.625 64.5V63.5C32.1825 63.5 29.978 62.9353 27.9907 61.8161L27.5 62.6875L27.0093 63.5589C29.3136 64.8564 31.8592 65.5 34.625 65.5V64.5ZM27.5 62.6875L27.997 61.8198C26.0444 60.7013 24.4634 58.9837 23.2679 56.6123L22.375 57.0625L21.4821 57.5127C22.8282 60.183 24.6639 62.2154 27.003 63.5552L27.5 62.6875ZM22.375 57.0625L23.2679 56.6123C22.0884 54.2726 21.4688 51.252 21.4688 47.5H20.4688H19.4688C19.4688 51.4564 20.1199 54.8108 21.4821 57.5127L22.375 57.0625ZM20.4688 47.5H21.4688C21.4688 43.6221 22.0991 40.4711 23.3049 38.0012L22.4062 37.5625L21.5076 37.1238C20.1301 39.9455 19.4688 43.4196 19.4688 47.5H20.4688ZM22.4062 37.5625L23.3021 38.0069C24.5457 35.4999 26.1566 33.6762 28.1155 32.4781L27.5938 31.625L27.072 30.7719C24.7392 32.1988 22.8918 34.3334 21.5104 37.1181L22.4062 37.5625ZM27.5938 31.625L28.1215 32.4744C30.1065 31.241 32.2775 30.625 34.6562 30.625V29.625V28.625C31.91 28.625 29.3726 29.3424 27.066 30.7756L27.5938 31.625ZM34.6562 29.625V30.625C36.4834 30.625 37.956 30.9398 39.1153 31.5194L39.5625 30.625L40.0097 29.7306C38.5023 28.9769 36.7041 28.625 34.6562 28.625V29.625ZM39.5625 30.625L39.1266 31.525C40.3523 32.1187 41.3042 32.8485 42.0117 33.7011L42.7812 33.0625L43.5508 32.4239C42.6333 31.3182 41.4394 30.423 39.9984 29.725L39.5625 30.625ZM42.7812 33.0625L42.0197 33.7106C42.8058 34.6343 43.386 35.5259 43.7778 36.384L44.6875 35.9688L45.5972 35.5535C45.114 34.4949 44.4234 33.4491 43.5428 32.4144L42.7812 33.0625ZM44.6875 35.9688V36.9688H45.0625V35.9688V34.9688H44.6875V35.9688ZM45.0625 35.9688H46.0625V30.0625H45.0625H44.0625V35.9688H45.0625ZM45.0625 30.0625V31.0625H54.5625V30.0625V29.0625H45.0625V30.0625ZM54.5625 30.0625H53.5625V65.375H54.5625H55.5625V30.0625H54.5625ZM54.5625 65.375H53.5625C53.5625 68.164 52.8777 70.4258 51.567 72.2233L52.375 72.8125L53.183 73.4017C54.789 71.1992 55.5625 68.5027 55.5625 65.375H54.5625ZM52.375 72.8125L51.567 72.2233C50.2334 74.0523 48.3854 75.4423 45.9802 76.3809L46.3438 77.3125L46.7073 78.2441C49.4271 77.1827 51.6 75.5727 53.183 73.4017L52.375 72.8125ZM46.3438 77.3125L45.9776 76.3819C43.5752 77.3272 40.7661 77.8125 37.5312 77.8125V78.8125V79.8125C40.9631 79.8125 44.029 79.2978 46.7099 78.2431L46.3438 77.3125ZM30.375 47.4375H29.375C29.375 50.5668 30.0261 53.1772 31.433 55.1704L32.25 54.5938L33.067 54.0171C31.9739 52.4686 31.375 50.3082 31.375 47.4375H30.375ZM32.25 54.5938L31.4408 55.1814C32.9203 57.2186 35.0601 58.2188 37.7188 58.2188V57.2188V56.2188C35.6274 56.2188 34.1214 55.4689 33.0592 54.0061L32.25 54.5938ZM37.7188 57.2188V58.2188C40.338 58.2188 42.4532 57.2277 43.9308 55.2172L43.125 54.625L42.3192 54.0328C41.2551 55.4806 39.7662 56.2188 37.7188 56.2188V57.2188ZM43.125 54.625L43.9262 55.2235C45.391 53.2624 46.0625 50.628 46.0625 47.4375H45.0625H44.0625C44.0625 50.372 43.4423 52.5293 42.3238 54.0265L43.125 54.625ZM45.0625 47.4375H46.0625C46.0625 44.2453 45.4009 41.5766 43.9781 39.5241L43.1562 40.0938L42.3344 40.6634C43.4532 42.2775 44.0625 44.5047 44.0625 47.4375H45.0625ZM43.1562 40.0938L43.9811 39.5284C42.5136 37.3872 40.3842 36.3125 37.7188 36.3125V37.3125V38.3125C39.7617 38.3125 41.2573 39.0919 42.3314 40.6591L43.1562 40.0938ZM37.7188 37.3125V36.3125C35.0089 36.3125 32.862 37.4113 31.4151 39.6058L32.25 40.1562L33.0849 40.7067C34.138 39.1095 35.6369 38.3125 37.7188 38.3125V37.3125ZM32.25 40.1562L31.4179 39.6016C30.0283 41.6861 29.375 44.3234 29.375 47.4375H30.375H31.375C31.375 44.5933 31.9717 42.3764 33.0821 40.7109L32.25 40.1562Z" fill="url(#paint1_linear_1001_2)" mask="url(#path-3-outside-2_1001_2)"/>
</g>
<defs>
<linearGradient id="paint0_linear_1001_2" x1="49.3732" y1="3.94275" x2="26.7517" y2="16.5568" gradientUnits="userSpaceOnUse">
<stop stop-color="#4214E8"/>
<stop offset="0.519231" stop-color="#5F17F1"/>
<stop offset="1" stop-color="#C119F9"/>
</linearGradient>
<linearGradient id="paint1_linear_1001_2" x1="25.201" y1="5.54962" x2="3.0091" y2="14.1223" gradientUnits="userSpaceOnUse">
<stop stop-color="#4214E8"/>
<stop offset="0.519231" stop-color="#5F17F1"/>
<stop offset="1" stop-color="#C119F9"/>
</linearGradient>
<clipPath id="clip0_1001_2">
<rect width="114" height="112" fill="white"/>
</clipPath>
</defs>
</svg>
